<svg width="96" height="96" xmlns="http://www.w3.org/2000/svg" xmlns:xlink="http://www.w3.org/1999/xlink" xml:space="preserve" overflow="hidden"><g transform="translate(-321 -248)"><path d="M350 274C351.7 274 353 272.7 353 271L353 265C353 263.3 351.7 262 350 262 348.3 262 347 263.3 347 265L347 271C347 272.7 348.3 274 350 274Z" fill="#FFFFFF"/><path d="M341 316 357 316 357 324 341 324 341 316ZM341 304 357 304 357 312 341 312 341 304ZM341 292 357 292 357 300 341 300 341 292ZM377 292 377 300 361 300 361 292 377 292ZM397 292 397 300 381 300 381 292 397 292ZM397 312 381 312 381 304 397 304 397 312ZM397 324 381 324 381 316 397 316 397 324ZM361 312 361 304 377 304 377 312 361 312ZM361 324 361 316 377 316 377 324 361 324ZM335 330 403 330 403 286 335 286 335 330Z" fill="#FFFFFF"/><path d="M388 274C389.7 274 391 272.7 391 271L391 265C391 263.3 389.7 262 388 262 386.3 262 385 263.3 385 265L385 271C385 272.7 386.3 274 388 274Z" fill="#FFFFFF"/><path d="M395 268 395 271C395 274.9 391.9 278 388 278 384.1 278 381 274.9 381 271L381 268 357 268 357 271C357 274.9 353.9 278 350 278 346.1 278 343 274.9 343 271L343 268 335 268 335 282 403 282 403 268 395 268Z" fill="#FFFFFF"/></g></svg>