<svg width="96" height="96" xmlns="http://www.w3.org/2000/svg" xmlns:xlink="http://www.w3.org/1999/xlink" xml:space="preserve" overflow="hidden"><g transform="translate(-474 -360)"><path d="M494 448C491.8 448 489.917 447.217 488.35 445.65 486.783 444.083 486 442.2 486 440L486 384C486 381.8 486.783 379.917 488.35 378.35 489.917 376.783 491.8 376 494 376L498 376 498 368 506 368 506 376 538 376 538 368 546 368 546 376 550 376C552.2 376 554.083 376.783 555.65 378.35 557.217 379.917 558 381.8 558 384L558 440C558 442.2 557.217 444.083 555.65 445.65 554.083 447.217 552.2 448 550 448L494 448ZM494 440 550 440 550 400 494 400 494 440ZM494 392 550 392 550 384 494 384 494 392ZM494 392 494 384 494 392ZM522 416C520.867 416 519.917 415.617 519.15 414.85 518.383 414.083 518 413.133 518 412 518 410.867 518.383 409.917 519.15 409.15 519.917 408.383 520.867 408 522 408 523.133 408 524.083 408.383 524.85 409.15 525.617 409.917 526 410.867 526 412 526 413.133 525.617 414.083 524.85 414.85 524.083 415.617 523.133 416 522 416ZM506 416C504.867 416 503.917 415.617 503.15 414.85 502.383 414.083 502 413.133 502 412 502 410.867 502.383 409.917 503.15 409.15 503.917 408.383 504.867 408 506 408 507.133 408 508.083 408.383 508.85 409.15 509.617 409.917 510 410.867 510 412 510 413.133 509.617 414.083 508.85 414.85 508.083 415.617 507.133 416 506 416ZM538 416C536.867 416 535.917 415.617 535.15 414.85 534.383 414.083 534 413.133 534 412 534 410.867 534.383 409.917 535.15 409.15 535.917 408.383 536.867 408 538 408 539.133 408 540.083 408.383 540.85 409.15 541.617 409.917 542 410.867 542 412 542 413.133 541.617 414.083 540.85 414.85 540.083 415.617 539.133 416 538 416ZM522 432C520.867 432 519.917 431.617 519.15 430.85 518.383 430.083 518 429.133 518 428 518 426.867 518.383 425.917 519.15 425.15 519.917 424.383 520.867 424 522 424 523.133 424 524.083 424.383 524.85 425.15 525.617 425.917 526 426.867 526 428 526 429.133 525.617 430.083 524.85 430.85 524.083 431.617 523.133 432 522 432ZM506 432C504.867 432 503.917 431.617 503.15 430.85 502.383 430.083 502 429.133 502 428 502 426.867 502.383 425.917 503.15 425.15 503.917 424.383 504.867 424 506 424 507.133 424 508.083 424.383 508.85 425.15 509.617 425.917 510 426.867 510 428 510 429.133 509.617 430.083 508.85 430.85 508.083 431.617 507.133 432 506 432ZM538 432C536.867 432 535.917 431.617 535.15 430.85 534.383 430.083 534 429.133 534 428 534 426.867 534.383 425.917 535.15 425.15 535.917 424.383 536.867 424 538 424 539.133 424 540.083 424.383 540.85 425.15 541.617 425.917 542 426.867 542 428 542 429.133 541.617 430.083 540.85 430.85 540.083 431.617 539.133 432 538 432Z" fill="#FFFFFF"/></g></svg>