<svg width="96" height="96" xmlns="http://www.w3.org/2000/svg" xmlns:xlink="http://www.w3.org/1999/xlink" xml:space="preserve" overflow="hidden"><g transform="translate(-1114 -322)"><path d="M1162 343.8 1176.4 358.3 1179.2 355.5 1162 339 1144.4 355.8 1147.2 358.6Z" fill="#FFFFFF"/><path d="M1194 379.9 1186 379.9 1186 371.9 1194 371.9 1194 379.9ZM1194 391.9 1186 391.9 1186 383.9 1194 383.9 1194 391.9ZM1182 379.9 1174 379.9 1174 371.9 1182 371.9 1182 379.9ZM1182 391.9 1174 391.9 1174 383.9 1182 383.9 1182 391.9ZM1169 379.9 1155 379.9 1155 375.9 1169 375.9 1169 379.9ZM1162 360.9C1163.7 360.9 1165 362.2 1165 363.9 1165 365.6 1163.7 366.9 1162 366.9 1160.3 366.9 1159 365.6 1159 363.9 1159 362.2 1160.3 360.9 1162 360.9ZM1150 379.9 1142 379.9 1142 371.9 1150 371.9 1150 379.9ZM1150 391.9 1142 391.9 1142 383.9 1150 383.9 1150 391.9ZM1138 379.9 1130 379.9 1130 371.9 1138 371.9 1138 379.9ZM1138 391.9 1130 391.9 1130 383.9 1138 383.9 1138 391.9ZM1174 366.9 1174 360.9 1162 348.9 1150 360.9 1150 366.9 1126 366.9 1126 400.9 1155 400.9 1155 389.9C1155 387.1 1157 383.9 1162 383.9 1167 383.9 1169 387.1 1169 389.9L1169 400.9 1198 400.9 1198 366.9 1174 366.9Z" fill="#FFFFFF"/></g></svg>