<svg width="96" height="96" xmlns="http://www.w3.org/2000/svg" xmlns:xlink="http://www.w3.org/1999/xlink" xml:space="preserve" overflow="hidden"><g transform="translate(-408 -274)"><path d="M454 304.1 454 308.1C454.7 308.1 455.3 308 456 308 456.7 308 457.3 308 458 308.1L458 304.1C461.9 304.3 465.6 305.1 469 306.4L467.5 310C468.8 310.5 470 311 471.2 311.6L472.7 307.9C474.6 308.8 476.3 309.9 478 311.1L482.3 306.8C475 301.3 465.9 298 456 298 431.7 298 412 317.7 412 342L412 346 418 346 418 342C418 337.9 418.7 333.9 419.9 330.2L423.6 331.7C424 330.4 424.5 329.2 425 328L421.3 326.5C422.8 323.1 424.9 319.9 427.3 317.2L430.1 320C431 319 431.9 318 432.9 317.1L430.1 314.3C432.8 311.8 435.9 309.6 439.3 307.9L440.8 311.6C442 311 443.2 310.5 444.5 310L443 306.3C446.4 305 450.1 304.3 454 304.1Z" fill="#FFFFFF"/><path d="M492.1 316.8 487.8 321.1C488.9 322.8 489.9 324.6 490.7 326.4L487 328C487.5 329.2 488 330.5 488.4 331.7L492.1 330.2C493.3 333.9 494 337.9 494 342L494 346 500 346 500 342C500 332.6 497.1 324 492.1 316.8Z" fill="#FFFFFF"/><path d="M453.2 340.2C453 340.3 452.9 340.5 452.7 340.7 451.3 342.4 451.5 344.9 453.2 346.4 454.9 347.8 457.4 347.6 458.9 345.9L490 309 453.2 340.2Z" fill="#FFFFFF"/></g></svg>