<svg width="96" height="96" xmlns="http://www.w3.org/2000/svg" xmlns:xlink="http://www.w3.org/1999/xlink" xml:space="preserve" overflow="hidden"><g transform="translate(-474 -150)"><path d="M497 164 547 164 547 232 497 232 497 164ZM491 238 553 238 553 158 491 158 491 238Z" fill="#FFFFFF"/><path d="M524 173 541 173 541 177 524 177Z" fill="#FFFFFF"/><path d="M524 189 541 189 541 193 524 193Z" fill="#FFFFFF"/><path d="M524 221 541 221 541 225 524 225Z" fill="#FFFFFF"/><path d="M524 205 541 205 541 209 524 209Z" fill="#FFFFFF"/><path d="M517.8 170.8 515 168 508.4 174.6 505.8 172 503 174.8 508.4 180.2Z" fill="#FFFFFF"/><path d="M517.8 186.8 515 184 508.4 190.6 505.8 188 503 190.8 508.4 196.2Z" fill="#FFFFFF"/><path d="M517.8 202.8 515 200 508.4 206.6 505.8 204 503 206.8 508.4 212.2Z" fill="#FFFFFF"/><path d="M517.8 218.6 515 215.8 508.4 222.4 505.8 219.8 503 222.6 508.4 228Z" fill="#FFFFFF"/></g></svg>