<svg width="108" height="108" xmlns="http://www.w3.org/2000/svg" xmlns:xlink="http://www.w3.org/1999/xlink" xml:space="preserve" overflow="hidden"><g transform="translate(-688 -408)"><path d="M724.338 498C723.513 498 722.744 497.794 722.031 497.381 721.319 496.969 720.775 496.388 720.4 495.638L711.625 480 718.15 480 722.65 489 733 489 733 484.5 725.35 484.5 720.85 475.5 709.15 475.5 702.737 464.25C702.588 463.875 702.456 463.5 702.344 463.125 702.231 462.75 702.175 462.375 702.175 462 702.175 461.7 702.362 460.95 702.737 459.75L709.15 448.5 720.85 448.5 725.35 439.5 733 439.5 733 435 722.65 435 718.15 444 711.625 444 720.4 428.362C720.775 427.612 721.319 427.031 722.031 426.619 722.744 426.206 723.513 426 724.338 426L735.25 426C736.525 426 737.594 426.431 738.456 427.294 739.319 428.156 739.75 429.225 739.75 430.5L739.75 448.5 733 448.5 728.5 453 739.75 453 739.75 466.5 729.85 466.5 725.35 457.5 715 457.5 710.5 462 722.65 462 727.15 471 739.75 471 739.75 493.5C739.75 494.775 739.319 495.844 738.456 496.706 737.594 497.569 736.525 498 735.25 498L724.338 498ZM748.75 498C747.475 498 746.406 497.569 745.544 496.706 744.681 495.844 744.25 494.775 744.25 493.5L744.25 471 756.85 471 761.35 462 773.5 462 769 457.5 758.65 457.5 754.15 466.5 744.25 466.5 744.25 453 755.5 453 751 448.5 744.25 448.5 744.25 430.5C744.25 429.225 744.681 428.156 745.544 427.294 746.406 426.431 747.475 426 748.75 426L759.662 426C760.487 426 761.256 426.206 761.969 426.619 762.681 427.031 763.225 427.612 763.6 428.362L772.375 444 765.85 444 761.35 435 751 435 751 439.5 758.65 439.5 763.15 448.5 774.85 448.5 781.263 459.75C781.412 460.125 781.544 460.5 781.656 460.875 781.769 461.25 781.825 461.625 781.825 462 781.825 462.3 781.638 463.05 781.263 464.25L774.85 475.5 763.15 475.5 758.65 484.5 751 484.5 751 489 761.35 489 765.85 480 772.375 480 763.6 495.638C763.225 496.388 762.681 496.969 761.969 497.381 761.256 497.794 760.487 498 759.662 498L748.75 498Z" fill="#FFFFFF"/></g></svg>