<svg width="96" height="96" xmlns="http://www.w3.org/2000/svg" xmlns:xlink="http://www.w3.org/1999/xlink" xml:space="preserve" overflow="hidden"><g transform="translate(-187 -323)"><path d="M265.5 340.5 264.5 331.5 253.5 342.5 254.1 347.7 238.1 363.7C236.7 363 235.1 362.5 233.4 362.5 227.9 362.5 223.4 367 223.4 372.5 223.4 378 227.9 382.5 233.4 382.5 238.9 382.5 243.4 378 243.4 372.5 243.4 370.8 243 369.3 242.3 367.9L258.3 351.9 263.5 352.5 274.5 341.5 265.5 340.5Z" fill="#FFFFFF"/><path d="M266.3 355.3 265 356.7 263.1 356.5 261 356.2C263.8 361 265.5 366.5 265.5 372.5 265.5 390.1 251.1 404.5 233.5 404.5 215.9 404.5 201.5 390.1 201.5 372.5 201.5 354.9 215.9 340.5 233.5 340.5 239.4 340.5 245 342.1 249.8 345L249.6 343 249.3 341 250.7 339.6 251.4 338.9C246 336.1 240 334.5 233.5 334.5 212.5 334.5 195.5 351.5 195.5 372.5 195.5 393.5 212.5 410.5 233.5 410.5 254.5 410.5 271.5 393.5 271.5 372.5 271.5 366 269.9 360 267 354.7L266.3 355.3Z" fill="#FFFFFF"/><path d="M250.2 365.7C251.1 367.8 251.5 370.1 251.5 372.5 251.5 382.4 243.4 390.5 233.5 390.5 223.6 390.5 215.5 382.4 215.5 372.5 215.5 362.6 223.6 354.5 233.5 354.5 235.9 354.5 238.2 355 240.3 355.8L244.8 351.3C241.4 349.5 237.6 348.5 233.5 348.5 220.3 348.5 209.5 359.3 209.5 372.5 209.5 385.7 220.3 396.5 233.5 396.5 246.7 396.5 257.5 385.7 257.5 372.5 257.5 368.4 256.5 364.6 254.7 361.2L250.2 365.7Z" fill="#FFFFFF"/></g></svg>