<svg width="210" height="200" viewBox="0 0 210 200" fill="none" xmlns="http://www.w3.org/2000/svg">
<path id="Star 1" d="M98.3426 5.22922C100.438 -1.21996 109.562 -1.21995 111.657 5.22923L131.493 66.2759C132.43 69.16 135.117 71.1127 138.15 71.1127H202.338C209.119 71.1127 211.939 79.7901 206.453 83.7759L154.523 121.505C152.07 123.287 151.043 126.447 151.98 129.331L171.816 190.378C173.911 196.827 166.53 202.19 161.044 198.204L109.114 160.475C106.661 158.692 103.339 158.692 100.886 160.475L48.9561 198.204C43.4701 202.19 36.0888 196.827 38.1842 190.378L58.0195 129.331C58.9566 126.447 57.93 123.287 55.4766 121.505L3.54722 83.7759C-1.93878 79.79 0.880659 71.1127 7.66172 71.1127H71.85C74.8825 71.1127 77.5702 69.16 78.5073 66.2759L98.3426 5.22922Z" fill="#E9C400"/>
</svg>
