<svg width="96" height="96" xmlns="http://www.w3.org/2000/svg" xmlns:xlink="http://www.w3.org/1999/xlink" xml:space="preserve" overflow="hidden"><g transform="translate(-251 -207)"><path d="M264 285 268 285 268 282 287 282 287 285 291 285 291 265 264 265ZM275 269 280 269C280.552 269 281 269.448 281 270 281 270.552 280.552 271 280 271L275 271C274.448 271 274 270.552 274 270 274 269.448 274.448 269 275 269Z" fill="#FFFFFF"/><path d="M303 234 306 234 306 248 303 248Z" fill="#FFFFFF"/><path d="M337 250 261 250C259.895 250 259 250.895 259 252 259 253.105 259.895 254 261 254L264 254 264 263 291 263 291 254 330 254 330 285 334 285 334 254 337 254C338.105 254 339 253.105 339 252 339 250.895 338.105 250 337 250ZM280 259 275 259C274.448 259 274 258.552 274 258 274 257.448 274.448 257 275 257L280 257C280.552 257 281 257.448 281 258 281 258.552 280.552 259 280 259Z" fill="#FFFFFF"/><path d="M279 244 278.558 244 278.558 235.025C278.56 232.965 280.23 231.295 282.29 231.293L284.05 231.293 284.881 232.124C284.323 234.185 284.908 236.387 286.414 237.9L294.9 229.414C293.387 227.908 291.186 227.324 289.125 227.881L287.125 225.881C285.958 224.71 284.063 224.708 282.892 225.875 281.99 226.775 281.756 228.147 282.31 229.295L282.29 229.295C279.126 229.298 276.561 231.863 276.558 235.027L276.558 244 276 244C273.791 244 272 245.791 272 248L283 248C283 245.791 281.209 244 279 244Z" fill="#FFFFFF"/><path d="M292.778 235.778C293.559 234.997 293.559 233.731 292.778 232.95L289.95 235.778C290.731 236.559 291.997 236.559 292.778 235.778Z" fill="#FFFFFF"/><path d="M321 237 327 237 327 245 321 245Z" fill="#FFFFFF"/><path d="M321 246 327 246 327 248 321 248Z" fill="#FFFFFF"/><path d="M321 234 327 234 327 236 321 236Z" fill="#FFFFFF"/><path d="M312 232 308 232 308 248 312 248ZM311 236 309 236 309 234 311 234Z" fill="#FFFFFF"/><path d="M319 236 314 236 314 248 319 248ZM316.5 246C316.224 246 316 245.776 316 245.5 316 245.224 316.224 245 316.5 245 316.776 245 317 245.224 317 245.5 317 245.776 316.776 246 316.5 246ZM316.5 239C316.224 239 316 238.776 316 238.5 316 238.224 316.224 238 316.5 238 316.776 238 317 238.224 317 238.5 317 238.776 316.776 239 316.5 239Z" fill="#FFFFFF"/></g></svg>