<svg width="90" height="91" xmlns="http://www.w3.org/2000/svg" xmlns:xlink="http://www.w3.org/1999/xlink" xml:space="preserve" overflow="hidden"><g transform="translate(-508 -479)"><path d="M14.9062-15.75 11.7188-17.0625C9.78125-17.875 8.48438-19.2812 7.82812-21.2812 7.17188-23.2812 7.28125-25.25 8.15625-27.1875L14.9062-41.8125 14.9062-15.75ZM29.9062-7.5C27.8438-7.5 26.0781-8.23438 24.6094-9.70312 23.1406-11.1719 22.4062-12.9375 22.4062-15L22.4062-37.5 32.3438-9.9375C32.5312-9.5 32.7188-9.07812 32.9062-8.67188 33.0938-8.26562 33.3438-7.875 33.6562-7.5L29.9062-7.5ZM49.2188-7.875C47.2188-7.125 45.2812-7.21875 43.4062-8.15625 41.5312-9.09375 40.2188-10.5625 39.4688-12.5625L22.7812-58.3125C22.0312-60.3125 22.0938-62.2656 22.9688-64.1719 23.8438-66.0781 25.2812-67.375 27.2812-68.0625L55.5938-78.375C57.5938-79.125 59.5312-79.0312 61.4062-78.0938 63.2812-77.1562 64.5938-75.6875 65.3438-73.6875L82.0312-27.9375C82.7812-25.9375 82.7188-23.9844 81.8438-22.0781 80.9688-20.1719 79.5312-18.875 77.5312-18.1875L49.2188-7.875ZM41.1562-52.5C42.2188-52.5 43.1094-52.8594 43.8281-53.5781 44.5469-54.2969 44.9062-55.1875 44.9062-56.25 44.9062-57.3125 44.5469-58.2031 43.8281-58.9219 43.1094-59.6406 42.2188-60 41.1562-60 40.0938-60 39.2031-59.6406 38.4844-58.9219 37.7656-58.2031 37.4062-57.3125 37.4062-56.25 37.4062-55.1875 37.7656-54.2969 38.4844-53.5781 39.2031-52.8594 40.0938-52.5 41.1562-52.5ZM46.5938-15 74.9062-25.3125 58.2188-71.25 29.9062-60.9375 46.5938-15ZM29.9062-60.9375 58.2188-71.25 29.9062-60.9375Z" fill="#FFFFFF" transform="matrix(1 0 0 1.01111 508 570)"/></g></svg>