<svg width="90" height="91" xmlns="http://www.w3.org/2000/svg" xmlns:xlink="http://www.w3.org/1999/xlink" xml:space="preserve" overflow="hidden"><g transform="translate(-399 -480)"><path d="M26.25-15 26.25-56.3438C26.25-58.4062 27-60.1562 28.5-61.5938 30-63.0312 31.7812-63.75 33.8438-63.75L75-63.75C77.0625-63.75 78.8281-63.0156 80.2969-61.5469 81.7656-60.0781 82.5-58.3125 82.5-56.25L82.5-26.25 63.75-7.5 33.75-7.5C31.6875-7.5 29.9219-8.23438 28.4531-9.70312 26.9844-11.1719 26.25-12.9375 26.25-15ZM7.59375-66.5625C7.21875-68.625 7.625-70.4844 8.8125-72.1406 10-73.7969 11.625-74.8125 13.6875-75.1875L54.375-82.4062C56.4375-82.7812 58.2969-82.375 59.9531-81.1875 61.6094-80 62.625-78.375 63-76.3125L63.9375-71.25 56.25-71.25 55.5938-75 15-67.7812 18.75-46.5938 18.75-20.4375C17.75-21 16.8906-21.75 16.1719-22.6875 15.4531-23.625 15-24.6875 14.8125-25.875L7.59375-66.5625ZM33.75-56.25 33.75-15 60-15 60-30 75-30 75-56.25 33.75-56.25Z" fill="#FFFFFF" transform="matrix(1 0 0 1.01111 399 571)"/></g></svg>